Patient4_TMGait_0pt7_01_right_22_GRF.mot
version=1
nRows=58
nColumns=19
inDegrees=no
endheader
time	F1x	F1y	F1z	M1x	M1y	M1z	F2x	F2y	F2z	M2x	M2y	M2z	EC1x	EC1y	EC1z	EC2x	EC2y	EC2z
24.71	-24.065	770.7847	56.544	-241.0244	-65.2588	793.3892	21.0852	6.8434	-3.6148	2.0239	1.1903	-7.0698	-0.0592	0.0182	-0.0073	-0.0462	0.0165	0.9585
24.7219	-17.0488	760.8134	59.4331	-235.9086	-65.5472	790.0412	13.9903	5.194	-2.3722	1.6069	0.86532	-4.2004	-0.0592	0.0182	-0.0073	-0.0462	0.0165	0.9585
24.7337	-10.6932	750.1105	61.789	-230.5485	-65.3862	783.6901	7.9995	3.8665	-1.3993	1.3004	0.65024	-1.6688	-0.0592	0.0182	-0.0073	-0.0462	0.0165	0.9585
24.7456	-5.4254	739.5048	63.617	-225.3204	-64.9268	774.9382	3.4048	2.9519	-0.70576	1.1125	0.52943	0.40505	-0.0592	0.0182	-0.0073	-0.0462	0.0165	0.9585
24.7574	-1.28	729.7223	64.8334	-220.5406	-64.145	764.7204	0.25146	2.3664	-0.25749	1.0122	0.46308	1.8939	-0.0592	0.0182	-0.0073	-0.0462	0.0165	0.9585
24.7693	1.7911	721.2872	65.5412	-216.4244	-63.1588	754.008	-1.7357	2.0888	-0.0056486	0.98347	0.45094	2.9386	-0.0592	0.0182	-0.0073	-0.0462	0.0165	0.9585
24.7811	3.9905	714.4818	65.6884	-213.0969	-61.897	743.5328	-2.7815	1.984	0.10244	0.98534	0.47069	3.5419	-0.0592	0.0182	-0.0073	-0.0462	0.0165	0.9585
24.793	5.5754	709.4361	65.41	-210.5986	-60.4374	733.8676	-3.2417	1.978	0.11327	0.98904	0.53715	3.8441	-0.0592	0.0182	-0.0073	-0.0462	0.0165	0.9585
24.8049	6.8319	706.0726	64.7349	-208.8956	-58.7442	725.2387	-3.299	1.927	0.055746	0.9497	0.63933	3.8066	-0.0592	0.0182	-0.0073	-0.0462	0.0165	0.9585
24.8167	8.008	704.1942	63.8355	-207.8918	-56.9149	717.6802	-3.2029	1.7502	-0.050357	0.83415	0.79012	3.496	-0.0592	0.0182	-0.0073	-0.0462	0.0165	0.9585
24.8286	9.4014	703.5528	62.8286	-207.4686	-54.9809	711.0708	-3.0176	1.2955	-0.1967	0.5941	0.97424	2.7897	-0.0592	0.0182	-0.0073	-0.0462	0.0165	0.9585
24.8404	11.212	703.9221	61.8551	-207.51	-53.0107	705.2347	-2.8639	0.509	-0.37875	0.20295	1.2012	1.6926	-0.0592	0.0182	-0.0073	-0.0462	0.0165	0.9585
24.8523	13.6626	705.2623	61.0183	-207.9585	-51.0309	700.1239	-2.7015	-0.71818	-0.58238	-0.37302	1.4378	0.072132	-0.0592	0.0182	-0.0073	-0.0462	0.0165	0.9585
24.8641	16.914	707.7714	60.3662	-208.8316	-49.0173	695.9342	-2.5507	-2.3595	-0.78939	-1.1256	1.6554	-1.9992	-0.0592	0.0182	-0.0073	-0.0462	0.0165	0.9585
24.876	21.0397	711.8799	59.9812	-210.2171	-46.9979	693.0692	-2.2812	-4.3374	-0.95167	-2.0108	1.7526	-4.4583	-0.0592	0.0182	-0.0073	-0.0462	0.0165	0.9585
24.8879	25.9933	718.0935	59.9106	-212.2235	-44.9936	692.041	-1.8398	-6.3499	-1.0007	-2.8992	1.6121	-6.9281	-0.0592	0.0182	-0.0073	-0.0462	0.0165	0.9585
24.8997	31.6353	726.741	60.2914	-214.9034	-43.1473	693.2298	-1.0423	-7.8976	-0.82744	-3.5636	1.0383	-8.8439	-0.0592	0.0182	-0.0073	-0.0462	0.0165	0.9585
24.9116	37.6279	737.8193	61.2274	-218.2135	-41.63	696.7122	0.20179	-8.1203	-0.29787	-3.626	-0.17269	-9.1732	-0.0592	0.0182	-0.0073	-0.0462	0.0165	0.9585
24.9234	43.5861	750.8289	62.8044	-221.9768	-40.6321	702.1151	2.0408	-5.8606	0.74946	-2.5608	-2.2625	-6.5633	-0.0592	0.0182	-0.0073	-0.0462	0.0165	0.9585
24.9353	49.0993	764.8267	64.9431	-225.9053	-40.2109	708.661	4.4918	0.45229	2.4708	0.33115	-5.4188	0.86728	-0.0592	0.0182	-0.0073	-0.0462	0.0165	0.9585
24.9471	53.8809	778.4249	67.4317	-229.6032	-40.2899	715.1166	7.4915	12.5914	4.9945	5.8512	-9.7397	15.214	-0.0592	0.0182	-0.0073	-0.0462	0.0165	0.9585
24.959	57.8183	789.8899	69.9297	-232.5893	-40.6343	719.9623	10.6902	32.403	8.3397	14.8164	-15.0682	38.6988	-0.0592	0.0182	-0.0073	-0.0462	0.0165	0.9585
24.9709	61.0024	797.2173	72.0271	-234.3158	-40.8972	721.3976	13.4429	61.2439	12.3282	27.8293	-20.8663	72.9559	-0.0592	0.0182	-0.0073	-0.0462	0.0165	0.9585
24.9827	63.5419	798.3188	73.3272	-234.2136	-40.7358	717.5947	14.6351	99.3778	16.476	44.988	-26.0458	118.3578	-0.0592	0.0182	-0.0073	-0.0462	0.0165	0.9585
24.9946	65.5978	791.2699	73.4106	-231.7629	-39.7711	706.8805	12.8842	145.1516	20.0506	65.52	-29.0978	172.9689	-0.0592	0.0182	-0.0073	-0.0462	0.0165	0.9585
25.0064	67.1828	774.5699	71.9796	-226.56	-37.7734	688.0114	7.2537	194.3427	21.9106	87.4818	-28.2523	231.7755	-0.0592	0.0182	-0.0073	-0.0462	0.0165	0.9585
25.0183	68.2466	747.3401	68.8319	-218.3781	-34.6079	660.2626	-1.3823	240.7594	20.5534	108.069	-22.2621	287.3465	-0.0592	0.0182	-0.0073	-0.0462	0.0165	0.9585
25.0301	68.6583	709.6032	64.0285	-207.232	-30.3857	623.7648	-10.6509	279.8071	15.9852	125.2312	-12.3035	333.97	-0.0592	0.0182	-0.0073	-0.0462	0.0165	0.9585
25.042	68.2981	662.3227	57.7838	-193.3953	-25.3189	579.4401	-18.8461	310.3351	9.5474	138.4858	-0.73996	370.0289	-0.0592	0.0182	-0.0073	-0.0462	0.0165	0.9585
25.0539	67.0718	607.1746	50.5471	-177.3321	-19.801	528.8381	-24.977	333.805	2.0358	148.5298	11.0021	397.0949	-0.0592	0.0182	-0.0073	-0.0462	0.0165	0.9585
25.0657	64.9178	546.2957	42.7355	-159.6391	-14.1667	473.8612	-28.9524	353.1977	-5.2282	156.7422	21.377	418.707	-0.0592	0.0182	-0.0073	-0.0462	0.0165	0.9585
25.0776	61.7195	482.0505	34.7672	-140.9759	-8.7677	416.5802	-31.1199	371.5409	-11.5559	164.532	29.7225	438.4946	-0.0592	0.0182	-0.0073	-0.0462	0.0165	0.9585
25.0894	57.3631	416.8804	27.0066	-122.0292	-3.9089	359.0823	-32.0744	391.5318	-16.2873	173.1301	35.5825	459.6683	-0.0592	0.0182	-0.0073	-0.0462	0.0165	0.9585
25.1013	51.8185	353.1395	19.7742	-103.4674	0.14802	303.3466	-32.2863	415.126	-19.4626	183.4079	39.2264	484.5143	-0.0592	0.0182	-0.0073	-0.0462	0.0165	0.9585
25.1131	45.2077	292.9612	13.3904	-85.904	3.1894	251.1264	-32.1985	443.5872	-21.408	195.8895	41.2466	514.54	-0.0592	0.0182	-0.0073	-0.0462	0.0165	0.9585
25.125	37.877	238.0607	8.0691	-69.8442	5.1597	203.7903	-32.0546	477.2538	-22.8621	210.6555	42.6033	550.1481	-0.0592	0.0182	-0.0073	-0.0462	0.0165	0.9585
25.1369	30.2808	189.5914	4.0045	-55.6321	6.0508	162.2233	-32.0841	515.3718	-24.611	227.2957	44.2803	590.4946	-0.0592	0.0182	-0.0073	-0.0462	0.0165	0.9585
25.1487	22.9241	148.0272	1.1854	-43.4185	6.0373	126.6907	-32.4523	556.2459	-27.305	245.0015	47.0761	633.6491	-0.0592	0.0182	-0.0073	-0.0462	0.0165	0.9585
25.1606	16.1884	113.1958	-0.46804	-33.1642	5.298	96.9714	-33.283	597.9609	-31.2591	262.8903	51.3869	677.4378	-0.0592	0.0182	-0.0073	-0.0462	0.0165	0.9585
25.1724	10.3309	84.5044	-1.2447	-24.7126	4.1406	72.4957	-34.5501	638.9231	-36.2595	280.2662	56.9837	720.0371	-0.0592	0.0182	-0.0073	-0.0462	0.0165	0.9585
25.1843	5.4254	61.1283	-1.3894	-17.8307	2.7746	52.5756	-36.1503	678.0023	-41.8512	296.6607	63.331	760.1825	-0.0592	0.0182	-0.0073	-0.0462	0.0165	0.9585
25.1961	1.5942	42.297	-1.2085	-12.3004	1.4764	36.5438	-37.9312	714.2671	-47.4389	311.7059	69.7277	796.8494	-0.0592	0.0182	-0.0073	-0.0462	0.0165	0.9585
25.208	-1.1174	27.4107	-0.88132	-7.9442	0.39984	23.9095	-39.7229	746.702	-52.6614	324.9956	75.7008	828.9681	-0.0592	0.0182	-0.0073	-0.0462	0.0165	0.9585
25.2199	-2.6319	16.0166	-0.5628	-4.6293	-0.30897	14.2461	-41.3476	774.1853	-57.2291	336.0686	80.8683	855.3857	-0.0592	0.0182	-0.0073	-0.0462	0.0165	0.9585
25.2317	-3.0644	7.7767	-0.30435	-2.2476	-0.64392	7.2704	-42.6313	795.5953	-61.0887	344.4605	85.0924	874.954	-0.0592	0.0182	-0.0073	-0.0462	0.0165	0.9585
25.2436	-2.7547	2.3146	-0.11805	-0.68343	-0.70001	2.622	-43.4155	810.0835	-64.1511	349.8257	88.2188	886.8224	-0.0592	0.0182	-0.0073	-0.0462	0.0165	0.9585
25.2554	-2.1189	-0.87934	0.0048745	0.21838	-0.60482	-0.10882	-43.5433	817.246	-66.4427	352.0114	90.2132	890.6232	-0.0592	0.0182	-0.0073	-0.0462	0.0165	0.9585
25.2673	-1.3701	-2.4133	0.086632	0.63829	-0.44755	-1.4586	-42.9471	817.3087	-67.9273	351.1379	91.0152	886.6638	-0.0592	0.0182	-0.0073	-0.0462	0.0165	0.9585
25.2791	-0.69864	-2.8344	0.12379	0.73928	-0.27663	-1.862	-41.5831	811.1597	-68.6678	347.5996	90.6832	875.9271	-0.0592	0.0182	-0.0073	-0.0462	0.0165	0.9585
25.291	-0.13734	-2.5822	0.13981	0.64989	-0.12685	-1.6974	-39.5018	800.1729	-68.7315	341.9923	89.317	859.9033	-0.0592	0.0182	-0.0073	-0.0462	0.0165	0.9585
25.3029	0.25632	-1.9845	0.12997	0.46549	-0.0086166	-1.2119	-36.7908	785.9489	-68.2623	335.0098	87.1131	840.2984	-0.0592	0.0182	-0.0073	-0.0462	0.0165	0.9585
25.3147	0.53069	-1.2737	0.11216	0.25269	0.072694	-0.61286	-33.6073	770.1853	-67.4023	327.3822	84.2926	818.9229	-0.0592	0.0182	-0.0073	-0.0462	0.0165	0.9585
25.3266	0.6798	-0.57867	0.083972	0.048444	0.12382	0.010947	-30.1185	754.4868	-66.3069	319.805	81.0936	797.4607	-0.0592	0.0182	-0.0073	-0.0462	0.0165	0.9585
25.3384	0.75953	0.016268	0.045254	-0.1271	0.15993	0.5658	-26.517	740.2888	-65.12	312.8985	77.7475	777.4089	-0.0592	0.0182	-0.0073	-0.0462	0.0165	0.9585
25.3503	0.76544	0.5007	0.0057879	-0.26911	0.17361	1.0536	-22.936	728.6968	-63.9661	307.1452	74.4496	759.8898	-0.0592	0.0182	-0.0073	-0.0462	0.0165	0.9585
25.3621	0.73567	0.87116	-0.038812	-0.37574	0.18098	1.4415	-19.4848	720.4216	-62.9431	302.8632	71.3542	745.616	-0.0592	0.0182	-0.0073	-0.0462	0.0165	0.9585
25.374	0.65827	1.13	-0.07178	-0.4442	0.1686	1.7237	-16.1813	715.7939	-62.0826	300.2101	68.5118	734.8879	-0.0592	0.0182	-0.0073	-0.0462	0.0165	0.9585
25.3859	0.55531	1.2609	-0.099083	-0.46871	0.14892	1.8579	-12.9999	714.7716	-61.3719	299.1893	65.9035	727.6352	-0.0592	0.0182	-0.0073	-0.0462	0.0165	0.9585
